<?xml version="1.0" encoding="UTF-8" standalone="no"?>
<svg
   viewBox="0 0 34 84"
   version="1.1"
   id="svg6"
   sodipodi:docname="breadcrumb.svg"
   width="34"
   height="84"
   inkscape:version="1.4.2 (ebf0e940d0, 2025-05-08)"
   xml:space="preserve"
   xmlns:inkscape="http://www.inkscape.org/namespaces/inkscape"
   xmlns:sodipodi="http://sodipodi.sourceforge.net/DTD/sodipodi-0.dtd"
   xmlns:xlink="http://www.w3.org/1999/xlink"
   xmlns="http://www.w3.org/2000/svg"
   xmlns:svg="http://www.w3.org/2000/svg"
   xmlns:rdf="http://www.w3.org/1999/02/22-rdf-syntax-ns#"
   xmlns:cc="http://creativecommons.org/ns#"
   xmlns:dc="http://purl.org/dc/elements/1.1/"><metadata
     id="metadata10"><rdf:RDF><cc:Work
         rdf:about=""><dc:format>image/svg+xml</dc:format><dc:type
           rdf:resource="http://purl.org/dc/dcmitype/StillImage" /><dc:title /></cc:Work></rdf:RDF></metadata><sodipodi:namedview
     pagecolor="#dcdcdc"
     bordercolor="#666666"
     borderopacity="1"
     objecttolerance="10"
     gridtolerance="10"
     guidetolerance="10"
     inkscape:pageopacity="0"
     inkscape:pageshadow="2"
     inkscape:window-width="1920"
     inkscape:window-height="1016"
     id="namedview8"
     showgrid="false"
     inkscape:zoom="8"
     inkscape:cx="4.6875"
     inkscape:cy="50.375"
     inkscape:window-x="0"
     inkscape:window-y="0"
     inkscape:window-maximized="1"
     inkscape:current-layer="focus-left"
     inkscape:showpageshadow="2"
     inkscape:pagecheckerboard="0"
     inkscape:deskcolor="#d1d1d1"
     showguides="true"><inkscape:grid
       type="xygrid"
       id="grid4506"
       originx="0"
       originy="0"
       spacingy="1"
       spacingx="1"
       units="px"
       visible="false" /><sodipodi:guide
       position="25.809397,38.966137"
       orientation="1,0"
       id="guide1"
       inkscape:locked="false" /><sodipodi:guide
       position="2.234375,3.4609375"
       orientation="1,0"
       id="guide4"
       inkscape:locked="false" /></sodipodi:namedview><defs
     id="defs3051"><style
       type="text/css"
       id="current-color-scheme">
      .ColorScheme-Text {
        color:#eff0f1;
      }
      
      .ColorScheme-Background {
        color:#0c0c0c;
      }</style><linearGradient
       id="linearGradient925"><stop
         id="stop920"
         style="stop-color:#5800e2;stop-opacity:1"
         offset="0" /><stop
         id="stop922"
         style="stop-color:#ff00e6;stop-opacity:1"
         offset="1" /></linearGradient><linearGradient
       xlink:href="#linearGradient991"
       gradientUnits="userSpaceOnUse"
       gradientTransform="translate(364.98305,-121.3886)"
       y2="39.015999"
       y1="39.015999"
       x2="82"
       x1="26"
       id="linearGradient1016" /><linearGradient
       id="linearGradient991"><stop
         offset="0"
         style="stop-color:#a22f66;stop-opacity:1"
         id="stop987" /><stop
         offset="1"
         style="stop-color:#1b77a0;stop-opacity:1"
         id="stop989" /></linearGradient><linearGradient
       xlink:href="#linearGradient925"
       gradientUnits="userSpaceOnUse"
       y2="363.35999"
       y1="269.35999"
       x2="407"
       x1="407"
       id="linearGradient908" /><linearGradient
       xlink:href="#linearGradient925"
       gradientUnits="userSpaceOnUse"
       y2="363.362"
       y1="363.362"
       x2="126.998"
       x1="32.998001"
       id="linearGradient910" /><linearGradient
       xlink:href="#linearGradient925"
       gradientUnits="userSpaceOnUse"
       y2="363.35999"
       y1="269.35999"
       x2="218"
       x1="218"
       id="linearGradient914" /><linearGradient
       xlink:href="#linearGradient925"
       gradientUnits="userSpaceOnUse"
       y2="358.362"
       y1="358.362"
       x2="126.998"
       x1="32.998001"
       id="linearGradient916" /><linearGradient
       xlink:href="#linearGradient925"
       gradientUnits="userSpaceOnUse"
       y2="432.35999"
       y1="432.35999"
       x2="363"
       x1="269"
       id="linearGradient920" /><linearGradient
       xlink:href="#linearGradient925"
       gradientUnits="userSpaceOnUse"
       y2="358.35999"
       y1="358.35999"
       x2="127"
       x1="33"
       id="linearGradient922" /><linearGradient
       xlink:href="#linearGradient925"
       gradientUnits="userSpaceOnUse"
       y2="227.36"
       y1="227.36"
       x2="370"
       x1="276"
       id="linearGradient932" /><linearGradient
       xlink:href="#linearGradient925"
       gradientUnits="userSpaceOnUse"
       y2="362.35999"
       y1="362.35999"
       x2="127"
       x1="33"
       id="linearGradient934" /><linearGradient
       xlink:href="#linearGradient925"
       gradientUnits="userSpaceOnUse"
       y2="226.36"
       y1="226.36"
       x2="370"
       x1="276"
       id="linearGradient936" /><linearGradient
       inkscape:collect="always"
       xlink:href="#linearGradient925"
       id="linearGradient1037"
       x1="48"
       y1="19.9375"
       x2="48"
       y2="1.375"
       gradientUnits="userSpaceOnUse" /><linearGradient
       inkscape:collect="always"
       xlink:href="#linearGradient925"
       id="linearGradient1049"
       x1="31"
       y1="-26.96875"
       x2="48"
       y2="-26.96875"
       gradientUnits="userSpaceOnUse" /><linearGradient
       inkscape:collect="always"
       xlink:href="#linearGradient925"
       id="linearGradient1057"
       x1="48"
       y1="-7.375"
       x2="31"
       y2="-7.375"
       gradientUnits="userSpaceOnUse" /><linearGradient
       inkscape:collect="always"
       xlink:href="#linearGradient925"
       id="linearGradient1065"
       x1="45"
       y1="1.375"
       x2="45"
       y2="19.9375"
       gradientUnits="userSpaceOnUse" /></defs><g
     transform="matrix(1,0,0,1.4545454,-23,14)"
     id="focus-right"><rect
       id="rect919"
       width="9"
       height="22"
       x="48"
       y="0" /><path
       inkscape:connector-curvature="0"
       d="M 48,0.6875003 V 20.625001 h 0.75 c 0.53799,-1.55e-4 1.025852,-0.314466 1.244141,-0.800781 l 3.888671,-8.277345 c 0.156254,-0.347931 0.156254,-0.74582 0,-1.09375 L 49.994141,1.4882815 C 49.775852,1.0019668 49.28799,0.6876553 48.75,0.6875003 Z"
       id="path921"
       style="fill:#ffffff" /><path
       sodipodi:nodetypes="ccccccccccc"
       inkscape:connector-curvature="0"
       style="color:#eff0f1;fill:url(#linearGradient1037);fill-opacity:1;stroke:none"
       d="m 48,0.6875003 v 0.6875 h 0.835937 c 0.03302,0.020921 2.806227,6.4021599 4.180375,9.6088867 -0.755638,1.684817 -4.180375,8.953614 -4.180375,8.953614 H 48 v 0.6875 h 1.649 c 0,0 4.397129,-9.524276 4.434,-9.625001 C 52.671004,7.5504108 49.649,0.6875003 49.649,0.6875003 Z"
       id="path923" /></g><g
     transform="matrix(1,0,0,1.4545454,-24,54.727272)"
     id="focus-center"><rect
       id="rect927"
       width="17"
       height="22"
       x="31"
       y="-28" /><path
       inkscape:connector-curvature="0"
       d="M 31,-27.312501 V -7.3749998 H 48 V -27.312501 Z"
       id="path929"
       style="fill:#ffffff" /><path
       d="M 31,-27.312501 V -26.625 h 17 v -0.687501 z"
       id="path1041"
       inkscape:connector-curvature="0"
       style="fill:url(#linearGradient1049);fill-opacity:1;stroke:none" /><path
       d="m 31,-8.0624998 v 0.6875 h 17 v -0.6875 z"
       id="path931"
       inkscape:connector-curvature="0"
       style="fill:url(#linearGradient1057);fill-opacity:1;stroke:none" /><rect
       style="fill:none;fill-opacity:1;stroke:none;stroke-width:2;stroke-linecap:square;stroke-linejoin:round;stroke-miterlimit:4;stroke-dasharray:none;stroke-dashoffset:0;stroke-opacity:1"
       id="rect927-3"
       width="17"
       height="22"
       x="33"
       y="-3.249999" /></g><g
     transform="matrix(1,0,0,1.4545454,-39,14)"
     id="focus-left"><rect
       id="rect935"
       width="6"
       height="22"
       x="39"
       y="0" /><path
       d="m 41.363281,0.6875003 c -0.984935,1.29e-4 -1.644132,1.002402 -1.24414,1.892578 L 43.761719,11 40.119141,18.732423 c -0.399992,0.890175 0.259205,1.89245 1.24414,1.892578 H 45 V 0.6875003 Z"
       id="path937"
       inkscape:connector-curvature="0"
       style="fill:#ffffff" /><path
       sodipodi:nodetypes="cccccccccccccccccc"
       d="M 41.363281,0.6875003 H 39.238 C 41.020579,4.0699889 42.270479,7.5529558 43.761719,11 42.251491,14.207825 40.733054,17.413817 39.238,20.625001 H 41.363281 45 v -0.6875 H 41.363281 40.654 l 0.37725,-0.794922 3.642578,-7.732423 c 0.1173,-0.260857 0.1173,-0.559455 0,-0.820312 L 41.03125,2.1699223 40.654,1.3750003 H 41.363281 45 v -0.6875 z"
       id="path939"
       inkscape:connector-curvature="0"
       style="color:#eff0f1;fill:url(#linearGradient1065);fill-opacity:1;stroke:none" /></g></svg>
